<svg width="175" height="46" viewBox="0 0 175 46" fill="none" xmlns="http://www.w3.org/2000/svg">
<g clip-path="url(#clip0_560_1005)">
<path d="M44.496 7.268V11.11H38.172V31H33.412V11.11H27.088V7.268H44.496ZM61.569 21.174C61.569 21.854 61.5237 22.466 61.433 23.01H47.663C47.7764 24.37 48.2524 25.4353 49.091 26.206C49.9297 26.9767 50.961 27.362 52.185 27.362C53.953 27.362 55.211 26.6027 55.959 25.084H61.093C60.549 26.8973 59.5064 28.3933 57.965 29.572C56.4237 30.728 54.531 31.306 52.287 31.306C50.4737 31.306 48.8417 30.9093 47.391 30.116C45.963 29.3 44.841 28.1553 44.025 26.682C43.2317 25.2087 42.835 23.5087 42.835 21.582C42.835 19.6327 43.2317 17.9213 44.025 16.448C44.8184 14.9747 45.929 13.8413 47.357 13.048C48.785 12.2547 50.4284 11.858 52.287 11.858C54.0777 11.858 55.6757 12.2433 57.081 13.014C58.509 13.7847 59.6084 14.884 60.379 16.312C61.1724 17.7173 61.569 19.338 61.569 21.174ZM56.639 19.814C56.6164 18.59 56.1744 17.6153 55.313 16.89C54.4517 16.142 53.3977 15.768 52.151 15.768C50.9724 15.768 49.975 16.1307 49.159 16.856C48.3657 17.5587 47.8784 18.5447 47.697 19.814H56.639ZM59.9094 21.582C59.9094 19.6327 60.3061 17.9327 61.0994 16.482C61.8928 15.0087 62.9921 13.8753 64.3974 13.082C65.8028 12.266 67.4121 11.858 69.2254 11.858C71.5601 11.858 73.4868 12.4473 75.0054 13.626C76.5468 14.782 77.5781 16.414 78.0994 18.522H72.9654C72.6934 17.706 72.2288 17.0713 71.5714 16.618C70.9368 16.142 70.1434 15.904 69.1914 15.904C67.8314 15.904 66.7548 16.4027 65.9614 17.4C65.1681 18.3747 64.7714 19.7687 64.7714 21.582C64.7714 23.3727 65.1681 24.7667 65.9614 25.764C66.7548 26.7387 67.8314 27.226 69.1914 27.226C71.1181 27.226 72.3761 26.3647 72.9654 24.642H78.0994C77.5781 26.682 76.5468 28.3027 75.0054 29.504C73.4641 30.7053 71.5374 31.306 69.2254 31.306C67.4121 31.306 65.8028 30.9093 64.3974 30.116C62.9921 29.3 61.8928 28.1667 61.0994 26.716C60.3061 25.2427 59.9094 23.5313 59.9094 21.582ZM88.2845 11.892C89.7125 11.892 90.9819 12.2093 92.0925 12.844C93.2032 13.456 94.0645 14.374 94.6765 15.598C95.3112 16.7993 95.6285 18.25 95.6285 19.95V31H90.8685V20.596C90.8685 19.1 90.4945 17.9553 89.7465 17.162C88.9985 16.346 87.9785 15.938 86.6865 15.938C85.3719 15.938 84.3292 16.346 83.5585 17.162C82.8105 17.9553 82.4365 19.1 82.4365 20.596V31H77.6765V5.84H82.4365V14.51C83.0485 13.694 83.8645 13.0593 84.8845 12.606C85.9045 12.13 87.0379 11.892 88.2845 11.892ZM108.733 7.268C111.226 7.268 113.413 7.75533 115.295 8.73C117.199 9.70467 118.661 11.0987 119.681 12.912C120.723 14.7027 121.245 16.788 121.245 19.168C121.245 21.548 120.723 23.6333 119.681 25.424C118.661 27.192 117.199 28.5633 115.295 29.538C113.413 30.5127 111.226 31 108.733 31H100.437V7.268H108.733ZM108.563 26.954C111.056 26.954 112.983 26.274 114.343 24.914C115.703 23.554 116.383 21.6387 116.383 19.168C116.383 16.6973 115.703 14.7707 114.343 13.388C112.983 11.9827 111.056 11.28 108.563 11.28H105.197V26.954H108.563ZM138.408 21.174C138.408 21.854 138.362 22.466 138.272 23.01H124.502C124.615 24.37 125.091 25.4353 125.93 26.206C126.768 26.9767 127.8 27.362 129.024 27.362C130.792 27.362 132.05 26.6027 132.798 25.084H137.932C137.388 26.8973 136.345 28.3933 134.804 29.572C133.262 30.728 131.37 31.306 129.126 31.306C127.312 31.306 125.68 30.9093 124.23 30.116C122.802 29.3 121.68 28.1553 120.864 26.682C120.07 25.2087 119.674 23.5087 119.674 21.582C119.674 19.6327 120.07 17.9213 120.864 16.448C121.657 14.9747 122.768 13.8413 124.196 13.048C125.624 12.2547 127.267 11.858 129.126 11.858C130.916 11.858 132.514 12.2433 133.92 13.014C135.348 13.7847 136.447 14.884 137.218 16.312C138.011 17.7173 138.408 19.338 138.408 21.174ZM133.478 19.814C133.455 18.59 133.013 17.6153 132.152 16.89C131.29 16.142 130.236 15.768 128.99 15.768C127.811 15.768 126.814 16.1307 125.998 16.856C125.204 17.5587 124.717 18.5447 124.536 19.814H133.478ZM145.826 26.614L150.586 12.164H155.652L148.682 31H142.902L135.966 12.164H141.066L145.826 26.614Z" fill="white"/>
<path d="M105.078 41.87C105.078 42.1127 105.064 42.3693 105.036 42.64H98.904C98.9507 43.396 99.2073 43.9887 99.674 44.418C100.15 44.838 100.724 45.048 101.396 45.048C101.947 45.048 102.404 44.922 102.768 44.67C103.141 44.4087 103.403 44.0633 103.552 43.634H104.924C104.719 44.3713 104.308 44.9733 103.692 45.44C103.076 45.8973 102.311 46.126 101.396 46.126C100.668 46.126 100.015 45.9627 99.436 45.636C98.8667 45.3093 98.4187 44.8473 98.092 44.25C97.7653 43.6433 97.602 42.9433 97.602 42.15C97.602 41.3567 97.7607 40.6613 98.078 40.064C98.3953 39.4667 98.8387 39.0093 99.408 38.692C99.9867 38.3653 100.649 38.202 101.396 38.202C102.124 38.202 102.768 38.3607 103.328 38.678C103.888 38.9953 104.317 39.434 104.616 39.994C104.924 40.5447 105.078 41.17 105.078 41.87ZM103.762 41.604C103.762 41.1187 103.655 40.7033 103.44 40.358C103.225 40.0033 102.931 39.7373 102.558 39.56C102.194 39.3733 101.788 39.28 101.34 39.28C100.696 39.28 100.145 39.4853 99.688 39.896C99.24 40.3067 98.9833 40.876 98.918 41.604H103.762ZM104.884 41.114C104.884 40.162 105.098 39.308 105.528 38.552C105.957 37.7867 106.54 37.1893 107.278 36.76C108.024 36.3307 108.85 36.116 109.756 36.116C110.82 36.116 111.748 36.3727 112.542 36.886C113.335 37.3993 113.914 38.1273 114.278 39.07H112.752C112.481 38.482 112.089 38.0293 111.576 37.712C111.072 37.3947 110.465 37.236 109.756 37.236C109.074 37.236 108.463 37.3947 107.922 37.712C107.38 38.0293 106.956 38.482 106.648 39.07C106.34 39.6487 106.186 40.33 106.186 41.114C106.186 41.8887 106.34 42.57 106.648 43.158C106.956 43.7367 107.38 44.1847 107.922 44.502C108.463 44.8193 109.074 44.978 109.756 44.978C110.465 44.978 111.072 44.824 111.576 44.516C112.089 44.1987 112.481 43.746 112.752 43.158H114.278C113.914 44.0913 113.335 44.8147 112.542 45.328C111.748 45.832 110.82 46.084 109.756 46.084C108.85 46.084 108.024 45.874 107.278 45.454C106.54 45.0247 105.957 44.432 105.528 43.676C105.098 42.92 104.884 42.066 104.884 41.114ZM118.12 46.126C117.401 46.126 116.748 45.9627 116.16 45.636C115.581 45.3093 115.124 44.8473 114.788 44.25C114.461 43.6433 114.298 42.9433 114.298 42.15C114.298 41.366 114.466 40.6753 114.802 40.078C115.147 39.4713 115.614 39.0093 116.202 38.692C116.79 38.3653 117.448 38.202 118.176 38.202C118.904 38.202 119.562 38.3653 120.15 38.692C120.738 39.0093 121.2 39.4667 121.536 40.064C121.881 40.6613 122.054 41.3567 122.054 42.15C122.054 42.9433 121.877 43.6433 121.522 44.25C121.177 44.8473 120.705 45.3093 120.108 45.636C119.511 45.9627 118.848 46.126 118.12 46.126ZM118.12 45.006C118.577 45.006 119.007 44.8987 119.408 44.684C119.809 44.4693 120.131 44.1473 120.374 43.718C120.626 43.2887 120.752 42.766 120.752 42.15C120.752 41.534 120.631 41.0113 120.388 40.582C120.145 40.1527 119.828 39.8353 119.436 39.63C119.044 39.4153 118.619 39.308 118.162 39.308C117.695 39.308 117.266 39.4153 116.874 39.63C116.491 39.8353 116.183 40.1527 115.95 40.582C115.717 41.0113 115.6 41.534 115.6 42.15C115.6 42.7753 115.712 43.3027 115.936 43.732C116.169 44.1613 116.477 44.4833 116.86 44.698C117.243 44.9033 117.663 45.006 118.12 45.006ZM131.555 38.188C132.153 38.188 132.685 38.314 133.151 38.566C133.618 38.8087 133.987 39.1773 134.257 39.672C134.528 40.1667 134.663 40.7687 134.663 41.478V46H133.403V41.66C133.403 40.8947 133.212 40.3113 132.829 39.91C132.456 39.4993 131.947 39.294 131.303 39.294C130.641 39.294 130.113 39.5087 129.721 39.938C129.329 40.358 129.133 40.9693 129.133 41.772V46H127.873V41.66C127.873 40.8947 127.682 40.3113 127.299 39.91C126.926 39.4993 126.417 39.294 125.773 39.294C125.111 39.294 124.583 39.5087 124.191 39.938C123.799 40.358 123.603 40.9693 123.603 41.772V46H122.329V38.328H123.603V39.434C123.855 39.0327 124.191 38.7247 124.611 38.51C125.041 38.2953 125.512 38.188 126.025 38.188C126.669 38.188 127.239 38.3327 127.733 38.622C128.228 38.9113 128.597 39.336 128.839 39.896C129.054 39.3547 129.409 38.9347 129.903 38.636C130.398 38.3373 130.949 38.188 131.555 38.188ZM144.579 38.188C145.176 38.188 145.708 38.314 146.175 38.566C146.642 38.8087 147.01 39.1773 147.281 39.672C147.552 40.1667 147.687 40.7687 147.687 41.478V46H146.427V41.66C146.427 40.8947 146.236 40.3113 145.853 39.91C145.48 39.4993 144.971 39.294 144.327 39.294C143.664 39.294 143.137 39.5087 142.745 39.938C142.353 40.358 142.157 40.9693 142.157 41.772V46H140.897V41.66C140.897 40.8947 140.706 40.3113 140.323 39.91C139.95 39.4993 139.441 39.294 138.797 39.294C138.134 39.294 137.607 39.5087 137.215 39.938C136.823 40.358 136.627 40.9693 136.627 41.772V46H135.353V38.328H136.627V39.434C136.879 39.0327 137.215 38.7247 137.635 38.51C138.064 38.2953 138.536 38.188 139.049 38.188C139.693 38.188 140.262 38.3327 140.757 38.622C141.252 38.9113 141.62 39.336 141.863 39.896C142.078 39.3547 142.432 38.9347 142.927 38.636C143.422 38.3373 143.972 38.188 144.579 38.188ZM155.377 41.87C155.377 42.1127 155.363 42.3693 155.335 42.64H149.203C149.249 43.396 149.506 43.9887 149.973 44.418C150.449 44.838 151.023 45.048 151.695 45.048C152.245 45.048 152.703 44.922 153.067 44.67C153.44 44.4087 153.701 44.0633 153.851 43.634H155.223C155.017 44.3713 154.607 44.9733 153.991 45.44C153.375 45.8973 152.609 46.126 151.695 46.126C150.967 46.126 150.313 45.9627 149.735 45.636C149.165 45.3093 148.717 44.8473 148.391 44.25C148.064 43.6433 147.901 42.9433 147.901 42.15C147.901 41.3567 148.059 40.6613 148.377 40.064C148.694 39.4667 149.137 39.0093 149.707 38.692C150.285 38.3653 150.948 38.202 151.695 38.202C152.423 38.202 153.067 38.3607 153.627 38.678C154.187 38.9953 154.616 39.434 154.915 39.994C155.223 40.5447 155.377 41.17 155.377 41.87ZM154.061 41.604C154.061 41.1187 153.953 40.7033 153.739 40.358C153.524 40.0033 153.23 39.7373 152.857 39.56C152.493 39.3733 152.087 39.28 151.639 39.28C150.995 39.28 150.444 39.4853 149.987 39.896C149.539 40.3067 149.282 40.876 149.217 41.604H154.061ZM156.932 39.574C157.156 39.1353 157.474 38.7947 157.884 38.552C158.304 38.3093 158.813 38.188 159.41 38.188V39.504H159.074C157.646 39.504 156.932 40.2787 156.932 41.828V46H155.658V38.328H156.932V39.574ZM159.005 42.15C159.005 41.3567 159.164 40.666 159.481 40.078C159.798 39.4807 160.237 39.0187 160.797 38.692C161.366 38.3653 162.015 38.202 162.743 38.202C163.686 38.202 164.46 38.4307 165.067 38.888C165.683 39.3453 166.089 39.98 166.285 40.792H164.913C164.782 40.3253 164.526 39.9567 164.143 39.686C163.77 39.4153 163.303 39.28 162.743 39.28C162.015 39.28 161.427 39.532 160.979 40.036C160.531 40.5307 160.307 41.2353 160.307 42.15C160.307 43.074 160.531 43.788 160.979 44.292C161.427 44.796 162.015 45.048 162.743 45.048C163.303 45.048 163.77 44.9173 164.143 44.656C164.516 44.3947 164.773 44.0213 164.913 43.536H166.285C166.08 44.32 165.669 44.95 165.053 45.426C164.437 45.8927 163.667 46.126 162.743 46.126C162.015 46.126 161.366 45.9627 160.797 45.636C160.237 45.3093 159.798 44.8473 159.481 44.25C159.164 43.6527 159.005 42.9527 159.005 42.15ZM173.585 41.87C173.585 42.1127 173.571 42.3693 173.543 42.64H167.411C167.458 43.396 167.714 43.9887 168.181 44.418C168.657 44.838 169.231 45.048 169.903 45.048C170.454 45.048 170.911 44.922 171.275 44.67C171.648 44.4087 171.91 44.0633 172.059 43.634H173.431C173.226 44.3713 172.815 44.9733 172.199 45.44C171.583 45.8973 170.818 46.126 169.903 46.126C169.175 46.126 168.522 45.9627 167.943 45.636C167.374 45.3093 166.926 44.8473 166.599 44.25C166.272 43.6433 166.109 42.9433 166.109 42.15C166.109 41.3567 166.268 40.6613 166.585 40.064C166.902 39.4667 167.346 39.0093 167.915 38.692C168.494 38.3653 169.156 38.202 169.903 38.202C170.631 38.202 171.275 38.3607 171.835 38.678C172.395 38.9953 172.824 39.434 173.123 39.994C173.431 40.5447 173.585 41.17 173.585 41.87ZM172.269 41.604C172.269 41.1187 172.162 40.7033 171.947 40.358C171.732 40.0033 171.438 39.7373 171.065 39.56C170.701 39.3733 170.295 39.28 169.847 39.28C169.203 39.28 168.652 39.4853 168.195 39.896C167.747 40.3067 167.49 40.876 167.425 41.604H172.269Z" fill="white"/>
</g>
<defs>
<clipPath id="clip0_560_1005">
<rect width="175" height="46" fill="white"/>
</clipPath>
</defs>
</svg>
