<svg width="135" height="46" viewBox="0 0 135 46" fill="none" xmlns="http://www.w3.org/2000/svg">
<g clip-path="url(#clip0_560_849)">
<path d="M18.496 7.268V11.11H12.172V31H7.412V11.11H1.088V7.268H18.496ZM35.569 21.174C35.569 21.854 35.5237 22.466 35.433 23.01H21.663C21.7764 24.37 22.2524 25.4353 23.091 26.206C23.9297 26.9767 24.961 27.362 26.185 27.362C27.953 27.362 29.211 26.6027 29.959 25.084H35.093C34.549 26.8973 33.5064 28.3933 31.965 29.572C30.4237 30.728 28.531 31.306 26.287 31.306C24.4737 31.306 22.8417 30.9093 21.391 30.116C19.963 29.3 18.841 28.1553 18.025 26.682C17.2317 25.2087 16.835 23.5087 16.835 21.582C16.835 19.6327 17.2317 17.9213 18.025 16.448C18.8184 14.9747 19.929 13.8413 21.357 13.048C22.785 12.2547 24.4284 11.858 26.287 11.858C28.0777 11.858 29.6757 12.2433 31.081 13.014C32.509 13.7847 33.6084 14.884 34.379 16.312C35.1724 17.7173 35.569 19.338 35.569 21.174ZM30.639 19.814C30.6164 18.59 30.1744 17.6153 29.313 16.89C28.4517 16.142 27.3977 15.768 26.151 15.768C24.9724 15.768 23.975 16.1307 23.159 16.856C22.3657 17.5587 21.8784 18.5447 21.697 19.814H30.639ZM33.9094 21.582C33.9094 19.6327 34.3061 17.9327 35.0994 16.482C35.8928 15.0087 36.9921 13.8753 38.3974 13.082C39.8028 12.266 41.4121 11.858 43.2254 11.858C45.5601 11.858 47.4868 12.4473 49.0054 13.626C50.5468 14.782 51.5781 16.414 52.0994 18.522H46.9654C46.6934 17.706 46.2288 17.0713 45.5714 16.618C44.9368 16.142 44.1434 15.904 43.1914 15.904C41.8314 15.904 40.7548 16.4027 39.9614 17.4C39.1681 18.3747 38.7714 19.7687 38.7714 21.582C38.7714 23.3727 39.1681 24.7667 39.9614 25.764C40.7548 26.7387 41.8314 27.226 43.1914 27.226C45.1181 27.226 46.3761 26.3647 46.9654 24.642H52.0994C51.5781 26.682 50.5468 28.3027 49.0054 29.504C47.4641 30.7053 45.5374 31.306 43.2254 31.306C41.4121 31.306 39.8028 30.9093 38.3974 30.116C36.9921 29.3 35.8928 28.1667 35.0994 26.716C34.3061 25.2427 33.9094 23.5313 33.9094 21.582ZM62.2845 11.892C63.7125 11.892 64.9819 12.2093 66.0925 12.844C67.2032 13.456 68.0645 14.374 68.6765 15.598C69.3112 16.7993 69.6285 18.25 69.6285 19.95V31H64.8685V20.596C64.8685 19.1 64.4945 17.9553 63.7465 17.162C62.9985 16.346 61.9785 15.938 60.6865 15.938C59.3719 15.938 58.3292 16.346 57.5585 17.162C56.8105 17.9553 56.4365 19.1 56.4365 20.596V31H51.6765V5.84H56.4365V14.51C57.0485 13.694 57.8645 13.0593 58.8845 12.606C59.9045 12.13 61.0379 11.892 62.2845 11.892ZM91.7426 14.612C91.7426 15.8813 91.4366 17.0713 90.8246 18.182C90.2353 19.2927 89.2946 20.188 88.0026 20.868C86.7333 21.548 85.124 21.888 83.1746 21.888H79.1966V31H74.4366V7.268H83.1746C85.0106 7.268 86.5746 7.58533 87.8666 8.22C89.1586 8.85467 90.122 9.72733 90.7566 10.838C91.414 11.9487 91.7426 13.2067 91.7426 14.612ZM82.9706 18.046C84.2853 18.046 85.26 17.7513 85.8946 17.162C86.5293 16.55 86.8466 15.7 86.8466 14.612C86.8466 12.3 85.5546 11.144 82.9706 11.144H79.1966V18.046H82.9706ZM95.9722 5.84V31H91.2122V5.84H95.9722ZM95.5411 21.514C95.5411 19.61 95.9151 17.9213 96.6631 16.448C97.4337 14.9747 98.4651 13.8413 99.7571 13.048C101.072 12.2547 102.534 11.858 104.143 11.858C105.548 11.858 106.772 12.1413 107.815 12.708C108.88 13.2747 109.73 13.9887 110.365 14.85V12.164H115.159V31H110.365V28.246C109.753 29.13 108.903 29.8667 107.815 30.456C106.75 31.0227 105.514 31.306 104.109 31.306C102.522 31.306 101.072 30.898 99.7571 30.082C98.4651 29.266 97.4337 28.1213 96.6631 26.648C95.9151 25.152 95.5411 23.4407 95.5411 21.514ZM110.365 21.582C110.365 20.426 110.138 19.44 109.685 18.624C109.232 17.7853 108.62 17.1507 107.849 16.72C107.078 16.2667 106.251 16.04 105.367 16.04C104.483 16.04 103.667 16.2553 102.919 16.686C102.171 17.1167 101.559 17.7513 101.083 18.59C100.63 19.406 100.403 20.3807 100.403 21.514C100.403 22.6473 100.63 23.6447 101.083 24.506C101.559 25.3447 102.171 25.9907 102.919 26.444C103.69 26.8973 104.506 27.124 105.367 27.124C106.251 27.124 107.078 26.9087 107.849 26.478C108.62 26.0247 109.232 25.39 109.685 24.574C110.138 23.7353 110.365 22.738 110.365 21.582ZM133.918 12.164L122.256 39.908H117.19L121.27 30.524L113.722 12.164H119.06L123.922 25.322L128.852 12.164H133.918Z" fill="white"/>
<path d="M65.078 41.87C65.078 42.1127 65.064 42.3693 65.036 42.64H58.904C58.9507 43.396 59.2073 43.9887 59.674 44.418C60.15 44.838 60.724 45.048 61.396 45.048C61.9467 45.048 62.404 44.922 62.768 44.67C63.1413 44.4087 63.4027 44.0633 63.552 43.634H64.924C64.7187 44.3713 64.308 44.9733 63.692 45.44C63.076 45.8973 62.3107 46.126 61.396 46.126C60.668 46.126 60.0147 45.9627 59.436 45.636C58.8667 45.3093 58.4187 44.8473 58.092 44.25C57.7653 43.6433 57.602 42.9433 57.602 42.15C57.602 41.3567 57.7607 40.6613 58.078 40.064C58.3953 39.4667 58.8387 39.0093 59.408 38.692C59.9867 38.3653 60.6493 38.202 61.396 38.202C62.124 38.202 62.768 38.3607 63.328 38.678C63.888 38.9953 64.3173 39.434 64.616 39.994C64.924 40.5447 65.078 41.17 65.078 41.87ZM63.762 41.604C63.762 41.1187 63.6547 40.7033 63.44 40.358C63.2253 40.0033 62.9313 39.7373 62.558 39.56C62.194 39.3733 61.788 39.28 61.34 39.28C60.696 39.28 60.1453 39.4853 59.688 39.896C59.24 40.3067 58.9833 40.876 58.918 41.604H63.762ZM64.8836 41.114C64.8836 40.162 65.0983 39.308 65.5276 38.552C65.957 37.7867 66.5403 37.1893 67.2776 36.76C68.0243 36.3307 68.8503 36.116 69.7556 36.116C70.8196 36.116 71.7483 36.3727 72.5416 36.886C73.335 37.3993 73.9136 38.1273 74.2776 39.07H72.7516C72.481 38.482 72.089 38.0293 71.5756 37.712C71.0716 37.3947 70.465 37.236 69.7556 37.236C69.0743 37.236 68.463 37.3947 67.9216 37.712C67.3803 38.0293 66.9556 38.482 66.6476 39.07C66.3396 39.6487 66.1856 40.33 66.1856 41.114C66.1856 41.8887 66.3396 42.57 66.6476 43.158C66.9556 43.7367 67.3803 44.1847 67.9216 44.502C68.463 44.8193 69.0743 44.978 69.7556 44.978C70.465 44.978 71.0716 44.824 71.5756 44.516C72.089 44.1987 72.481 43.746 72.7516 43.158H74.2776C73.9136 44.0913 73.335 44.8147 72.5416 45.328C71.7483 45.832 70.8196 46.084 69.7556 46.084C68.8503 46.084 68.0243 45.874 67.2776 45.454C66.5403 45.0247 65.957 44.432 65.5276 43.676C65.0983 42.92 64.8836 42.066 64.8836 41.114ZM78.1201 46.126C77.4014 46.126 76.7481 45.9627 76.1601 45.636C75.5814 45.3093 75.1241 44.8473 74.7881 44.25C74.4614 43.6433 74.2981 42.9433 74.2981 42.15C74.2981 41.366 74.4661 40.6753 74.8021 40.078C75.1474 39.4713 75.6141 39.0093 76.2021 38.692C76.7901 38.3653 77.4481 38.202 78.1761 38.202C78.9041 38.202 79.5621 38.3653 80.1501 38.692C80.7381 39.0093 81.2001 39.4667 81.5361 40.064C81.8814 40.6613 82.0541 41.3567 82.0541 42.15C82.0541 42.9433 81.8768 43.6433 81.5221 44.25C81.1768 44.8473 80.7054 45.3093 80.1081 45.636C79.5108 45.9627 78.8481 46.126 78.1201 46.126ZM78.1201 45.006C78.5774 45.006 79.0068 44.8987 79.4081 44.684C79.8094 44.4693 80.1314 44.1473 80.3741 43.718C80.6261 43.2887 80.7521 42.766 80.7521 42.15C80.7521 41.534 80.6308 41.0113 80.3881 40.582C80.1454 40.1527 79.8281 39.8353 79.4361 39.63C79.0441 39.4153 78.6194 39.308 78.1621 39.308C77.6954 39.308 77.2661 39.4153 76.8741 39.63C76.4914 39.8353 76.1834 40.1527 75.9501 40.582C75.7168 41.0113 75.6001 41.534 75.6001 42.15C75.6001 42.7753 75.7121 43.3027 75.9361 43.732C76.1694 44.1613 76.4774 44.4833 76.8601 44.698C77.2428 44.9033 77.6628 45.006 78.1201 45.006ZM91.5552 38.188C92.1525 38.188 92.6845 38.314 93.1512 38.566C93.6178 38.8087 93.9865 39.1773 94.2572 39.672C94.5278 40.1667 94.6632 40.7687 94.6632 41.478V46H93.4032V41.66C93.4032 40.8947 93.2118 40.3113 92.8292 39.91C92.4558 39.4993 91.9472 39.294 91.3032 39.294C90.6405 39.294 90.1132 39.5087 89.7212 39.938C89.3292 40.358 89.1332 40.9693 89.1332 41.772V46H87.8732V41.66C87.8732 40.8947 87.6818 40.3113 87.2992 39.91C86.9258 39.4993 86.4172 39.294 85.7732 39.294C85.1105 39.294 84.5832 39.5087 84.1912 39.938C83.7992 40.358 83.6032 40.9693 83.6032 41.772V46H82.3292V38.328H83.6032V39.434C83.8552 39.0327 84.1912 38.7247 84.6112 38.51C85.0405 38.2953 85.5118 38.188 86.0252 38.188C86.6692 38.188 87.2385 38.3327 87.7332 38.622C88.2278 38.9113 88.5965 39.336 88.8392 39.896C89.0538 39.3547 89.4085 38.9347 89.9032 38.636C90.3978 38.3373 90.9485 38.188 91.5552 38.188ZM104.579 38.188C105.176 38.188 105.708 38.314 106.175 38.566C106.642 38.8087 107.01 39.1773 107.281 39.672C107.552 40.1667 107.687 40.7687 107.687 41.478V46H106.427V41.66C106.427 40.8947 106.236 40.3113 105.853 39.91C105.48 39.4993 104.971 39.294 104.327 39.294C103.664 39.294 103.137 39.5087 102.745 39.938C102.353 40.358 102.157 40.9693 102.157 41.772V46H100.897V41.66C100.897 40.8947 100.706 40.3113 100.323 39.91C99.9497 39.4993 99.441 39.294 98.797 39.294C98.1343 39.294 97.607 39.5087 97.215 39.938C96.823 40.358 96.627 40.9693 96.627 41.772V46H95.353V38.328H96.627V39.434C96.879 39.0327 97.215 38.7247 97.635 38.51C98.0643 38.2953 98.5357 38.188 99.049 38.188C99.693 38.188 100.262 38.3327 100.757 38.622C101.252 38.9113 101.62 39.336 101.863 39.896C102.078 39.3547 102.432 38.9347 102.927 38.636C103.422 38.3373 103.972 38.188 104.579 38.188ZM115.377 41.87C115.377 42.1127 115.363 42.3693 115.335 42.64H109.203C109.249 43.396 109.506 43.9887 109.973 44.418C110.449 44.838 111.023 45.048 111.695 45.048C112.245 45.048 112.703 44.922 113.067 44.67C113.44 44.4087 113.701 44.0633 113.851 43.634H115.223C115.017 44.3713 114.607 44.9733 113.991 45.44C113.375 45.8973 112.609 46.126 111.695 46.126C110.967 46.126 110.313 45.9627 109.735 45.636C109.165 45.3093 108.717 44.8473 108.391 44.25C108.064 43.6433 107.901 42.9433 107.901 42.15C107.901 41.3567 108.059 40.6613 108.377 40.064C108.694 39.4667 109.137 39.0093 109.707 38.692C110.285 38.3653 110.948 38.202 111.695 38.202C112.423 38.202 113.067 38.3607 113.627 38.678C114.187 38.9953 114.616 39.434 114.915 39.994C115.223 40.5447 115.377 41.17 115.377 41.87ZM114.061 41.604C114.061 41.1187 113.953 40.7033 113.739 40.358C113.524 40.0033 113.23 39.7373 112.857 39.56C112.493 39.3733 112.087 39.28 111.639 39.28C110.995 39.28 110.444 39.4853 109.987 39.896C109.539 40.3067 109.282 40.876 109.217 41.604H114.061ZM116.932 39.574C117.156 39.1353 117.474 38.7947 117.884 38.552C118.304 38.3093 118.813 38.188 119.41 38.188V39.504H119.074C117.646 39.504 116.932 40.2787 116.932 41.828V46H115.658V38.328H116.932V39.574ZM119.005 42.15C119.005 41.3567 119.164 40.666 119.481 40.078C119.798 39.4807 120.237 39.0187 120.797 38.692C121.366 38.3653 122.015 38.202 122.743 38.202C123.686 38.202 124.46 38.4307 125.067 38.888C125.683 39.3453 126.089 39.98 126.285 40.792H124.913C124.782 40.3253 124.526 39.9567 124.143 39.686C123.77 39.4153 123.303 39.28 122.743 39.28C122.015 39.28 121.427 39.532 120.979 40.036C120.531 40.5307 120.307 41.2353 120.307 42.15C120.307 43.074 120.531 43.788 120.979 44.292C121.427 44.796 122.015 45.048 122.743 45.048C123.303 45.048 123.77 44.9173 124.143 44.656C124.516 44.3947 124.773 44.0213 124.913 43.536H126.285C126.08 44.32 125.669 44.95 125.053 45.426C124.437 45.8927 123.667 46.126 122.743 46.126C122.015 46.126 121.366 45.9627 120.797 45.636C120.237 45.3093 119.798 44.8473 119.481 44.25C119.164 43.6527 119.005 42.9527 119.005 42.15ZM133.585 41.87C133.585 42.1127 133.571 42.3693 133.543 42.64H127.411C127.458 43.396 127.714 43.9887 128.181 44.418C128.657 44.838 129.231 45.048 129.903 45.048C130.454 45.048 130.911 44.922 131.275 44.67C131.648 44.4087 131.91 44.0633 132.059 43.634H133.431C133.226 44.3713 132.815 44.9733 132.199 45.44C131.583 45.8973 130.818 46.126 129.903 46.126C129.175 46.126 128.522 45.9627 127.943 45.636C127.374 45.3093 126.926 44.8473 126.599 44.25C126.272 43.6433 126.109 42.9433 126.109 42.15C126.109 41.3567 126.268 40.6613 126.585 40.064C126.902 39.4667 127.346 39.0093 127.915 38.692C128.494 38.3653 129.156 38.202 129.903 38.202C130.631 38.202 131.275 38.3607 131.835 38.678C132.395 38.9953 132.824 39.434 133.123 39.994C133.431 40.5447 133.585 41.17 133.585 41.87ZM132.269 41.604C132.269 41.1187 132.162 40.7033 131.947 40.358C131.732 40.0033 131.438 39.7373 131.065 39.56C130.701 39.3733 130.295 39.28 129.847 39.28C129.203 39.28 128.652 39.4853 128.195 39.896C127.747 40.3067 127.49 40.876 127.425 41.604H132.269Z" fill="white"/>
</g>
<defs>
<clipPath id="clip0_560_849">
<rect width="135" height="46" fill="white"/>
</clipPath>
</defs>
</svg>
